<svg width="550" height="450" viewBox="0 0 550 450" fill="none" xmlns="http://www.w3.org/2000/svg">
<g clip-path="url(#clip0_1901_2056)">
<path opacity="0.2" fill-rule="evenodd" clip-rule="evenodd" d="M0 248.476C0 300.297 17.1249 347.519 45.3052 383.208C77.6342 424.164 124.515 449.913 176.771 450C199.609 450.037 221.446 445.141 241.505 436.204C251.876 431.582 263.484 432.112 273.529 437.589C285.312 444.005 298.506 447.602 312.438 447.602C318.193 447.602 323.83 446.984 329.281 445.81C344.843 442.472 359.004 434.573 370.634 423.385C377.943 416.351 387.304 412.815 396.871 412.828H397.033C428.646 412.828 458.01 401.913 482.389 383.208C504.184 366.508 521.982 343.588 533.841 316.677C544.18 293.226 550 266.735 550 238.697C550 142.534 481.509 64.5667 397.033 64.5667C388.421 64.5667 379.984 65.3947 371.753 66.9397C349.958 26.7751 310.928 0 266.404 0C247.607 0 229.786 4.77211 213.834 13.3265C198.663 21.4354 185.175 32.9578 174.142 47C136.677 47.68 102.034 61.6124 73.6805 84.8643C29.0485 121.444 0 181.103 0 248.476H0Z" fill="url(#paint0_linear_1901_2056)"/>
<path opacity="0.545118" d="M320.589 54.4696C316.914 54.4696 313.241 52.9111 310.445 49.7931C304.851 43.5571 304.851 33.4111 310.445 27.1762C316.036 20.9424 325.139 20.9402 330.732 27.1762C336.326 33.4122 336.326 43.5582 330.732 49.7931C327.936 52.9111 324.262 54.4696 320.589 54.4696V54.4696ZM320.589 33.5236C319.449 33.5236 318.308 34.0067 317.439 34.9751C315.704 36.9097 315.704 40.0585 317.439 41.9942C319.177 43.9288 321.999 43.9299 323.736 41.9942C325.471 40.0597 325.471 36.9108 323.736 34.9751C322.868 34.0078 321.727 33.5236 320.589 33.5236Z" fill="#C4CDD5"/>
<path opacity="0.545118" d="M207.808 427.864C204.135 427.864 200.46 426.304 197.664 423.187C192.07 416.951 192.07 406.805 197.664 400.57C203.256 394.335 212.361 394.335 217.953 400.57C223.547 406.806 223.547 416.952 217.953 423.187C215.157 426.305 211.482 427.864 207.808 427.864ZM207.808 406.918C206.669 406.918 205.528 407.401 204.659 408.369C202.924 410.304 202.924 413.453 204.659 415.388C206.397 417.324 209.219 417.324 210.957 415.388C212.692 413.454 212.692 410.305 210.957 408.369C210.089 407.402 208.948 406.918 207.808 406.918Z" fill="#C4CDD5"/>
<path d="M458.626 352.54C457.36 352.54 456.093 352.002 455.128 350.926L449.227 344.348L443.325 350.926C441.395 353.079 438.26 353.079 436.33 350.926C434.398 348.772 434.398 345.28 436.33 343.127L445.729 332.649C447.66 330.496 450.794 330.496 452.724 332.649L462.123 343.127C464.056 345.281 464.056 348.773 462.123 350.926C461.159 352.001 459.891 352.54 458.626 352.54Z" fill="#DFE3E8"/>
<path d="M109.707 331.529C108.442 331.529 107.174 330.991 106.209 329.915L100.308 323.337L94.4061 329.915C92.4758 332.068 89.3414 332.068 87.4111 329.915C85.4788 327.761 85.4788 324.269 87.4111 322.116L96.8103 311.638C98.7406 309.485 101.875 309.485 103.805 311.638L113.204 322.116C115.137 324.27 115.137 327.762 113.204 329.915C112.239 330.99 110.972 331.529 109.707 331.529V331.529Z" fill="#D5DBE0"/>
<g clip-path="url(#clip1_1901_2056)">
<path d="M276.568 410.079C276.508 409.98 275.074 407.586 274.577 402.616C274.122 398.057 274.415 390.372 278.4 379.651C285.95 359.342 276.66 342.956 276.565 342.793L277.024 342.527C278.812 345.95 280.104 349.611 280.861 353.399C282.732 362.219 282.051 371.389 278.897 379.836C271.36 400.111 276.963 409.708 277.021 409.803L276.568 410.079Z" fill="#CEDCDE"/>
<path d="M273.617 341.6C275.518 341.6 277.06 340.059 277.06 338.157C277.06 336.255 275.518 334.713 273.617 334.713C271.715 334.713 270.173 336.255 270.173 338.157C270.173 340.059 271.715 341.6 273.617 341.6Z" fill="#CEDCDE"/>
<path d="M284.475 354.315C286.377 354.315 287.919 352.773 287.919 350.871C287.919 348.969 286.377 347.427 284.475 347.427C282.574 347.427 281.032 348.969 281.032 350.871C281.032 352.773 282.574 354.315 284.475 354.315Z" fill="#CEDCDE"/>
<path d="M277.059 362.791C278.961 362.791 280.503 361.25 280.503 359.348C280.503 357.446 278.961 355.904 277.059 355.904C275.158 355.904 273.616 357.446 273.616 359.348C273.616 361.25 275.158 362.791 277.059 362.791Z" fill="#CEDCDE"/>
<path d="M286.064 369.943C287.966 369.943 289.508 368.402 289.508 366.5C289.508 364.598 287.966 363.056 286.064 363.056C284.163 363.056 282.621 364.598 282.621 366.5C282.621 368.402 284.163 369.943 286.064 369.943Z" fill="#CEDCDE"/>
<path d="M274.411 381.068C276.313 381.068 277.854 379.527 277.854 377.625C277.854 375.723 276.313 374.181 274.411 374.181C272.509 374.181 270.968 375.723 270.968 377.625C270.968 379.527 272.509 381.068 274.411 381.068Z" fill="#CEDCDE"/>
<path d="M278.649 410.204C278.649 410.204 275.205 401.728 285.535 395.371L278.649 410.204Z" fill="#CEDCDE"/>
<path d="M274.414 410.052C274.414 410.052 272.847 401.038 260.719 401.115L274.414 410.052Z" fill="#CEDCDE"/>
<path d="M95.9706 159.562C93.2176 159.562 90.5263 158.746 88.2372 157.216C85.9481 155.686 84.1639 153.512 83.1104 150.968C82.0568 148.424 81.7812 145.625 82.3183 142.925C82.8554 140.224 84.1811 137.743 86.1278 135.797C88.0745 133.85 90.5548 132.524 93.255 131.987C95.9552 131.449 98.754 131.725 101.298 132.779C103.841 133.832 106.015 135.617 107.545 137.906C109.074 140.196 109.891 142.887 109.891 145.641C109.891 149.333 108.424 152.874 105.813 155.485C103.203 158.095 99.6624 159.562 95.9706 159.562V159.562ZM95.9706 132.199C93.3125 132.199 90.714 132.988 88.5038 134.465C86.2936 135.942 84.571 138.041 83.5537 140.497C82.5365 142.953 82.2703 145.656 82.7889 148.263C83.3075 150.871 84.5875 153.266 86.4671 155.146C88.3467 157.026 90.7415 158.306 93.3486 158.824C95.9557 159.343 98.6581 159.077 101.114 158.06C103.57 157.042 105.669 155.319 107.146 153.109C108.622 150.898 109.411 148.3 109.411 145.641C109.411 143.876 109.063 142.128 108.388 140.497C107.712 138.866 106.722 137.385 105.474 136.136C104.226 134.888 102.745 133.898 101.114 133.223C99.4833 132.547 97.7356 132.199 95.9706 132.199V132.199Z" fill="#CDDBDD"/>
<path d="M237.076 159.562C234.323 159.562 231.631 158.746 229.342 157.216C227.053 155.686 225.269 153.512 224.215 150.968C223.162 148.424 222.886 145.625 223.423 142.925C223.96 140.224 225.286 137.743 227.233 135.797C229.18 133.85 231.66 132.524 234.36 131.987C237.06 131.449 239.859 131.725 242.403 132.779C244.946 133.832 247.12 135.617 248.65 137.906C250.179 140.196 250.995 142.887 250.995 145.641C250.995 149.333 249.529 152.874 246.918 155.485C244.308 158.095 240.767 159.562 237.076 159.562V159.562ZM237.076 132.199C234.417 132.199 231.819 132.988 229.609 134.465C227.399 135.942 225.676 138.041 224.659 140.497C223.641 142.953 223.375 145.656 223.894 148.263C224.412 150.871 225.692 153.266 227.572 155.146C229.452 157.026 231.847 158.306 234.454 158.824C237.061 159.343 239.763 159.077 242.219 158.06C244.675 157.042 246.774 155.319 248.251 153.109C249.727 150.898 250.516 148.3 250.516 145.641C250.516 143.876 250.168 142.128 249.493 140.497C248.817 138.866 247.827 137.385 246.579 136.136C245.331 134.888 243.85 133.898 242.219 133.223C240.588 132.547 238.841 132.199 237.076 132.199V132.199Z" fill="#CDDBDD"/>
<path d="M288.041 127.251H45.5525C40.8319 127.259 37.0065 131.986 37 137.819V253.441C37.0065 259.274 40.8319 263.998 45.5525 264.009H288.041C292.761 264.001 296.587 259.274 296.593 253.441V137.819C296.587 131.986 292.761 127.261 288.041 127.25V127.251ZM295.588 253.441C295.583 258.588 292.207 262.759 288.042 262.765H45.5525C41.3866 262.759 38.0125 258.588 38.006 253.441V137.819C38.0109 132.671 41.3866 128.5 45.5525 128.494H288.041C292.206 128.501 295.581 132.671 295.587 137.819L295.588 253.441Z" fill="#CDDBDD"/>
<path d="M97.8585 173.755H54.7729V203.918H97.8585V173.755Z" fill="#CEDCDE"/>
<path d="M158.178 173.755H115.093V203.918H158.178V173.755Z" fill="#CEDCDE"/>
<path d="M218.498 173.755H175.412V203.918H218.498V173.755Z" fill="#CEDCDE"/>
<path d="M278.817 173.755H235.732V203.918H278.817V173.755Z" fill="#CEDCDE"/>
<path d="M97.8585 217.923H54.7729V248.086H97.8585V217.923Z" fill="#CEDCDE"/>
<path d="M158.178 217.923H115.093V248.086H158.178V217.923Z" fill="#CEDCDE"/>
<path d="M218.498 217.923H175.412V248.086H218.498V217.923Z" fill="#CEDCDE"/>
<path d="M278.817 217.923H235.732V248.086H278.817V217.923Z" fill="#CEDCDE"/>
<path d="M129.445 247.911L119.274 233.863L122.044 231.857L129.83 242.61L159.622 211.998L162.072 214.384L129.445 247.911Z" fill="#6076B8"/>
<path d="M190.303 203.743L180.132 189.694L182.903 187.689L190.688 198.441L220.48 167.83L222.931 170.216L190.303 203.743Z" fill="#6076B8"/>
<path d="M96.1542 94H95.418V145.704H96.1542V94Z" fill="#2F2E41"/>
<path d="M237.798 94H237.062V145.704H237.798V94Z" fill="#2F2E41"/>
<path d="M449.211 410.998H244.958C244.857 411.005 244.755 410.991 244.66 410.957C244.564 410.923 244.477 410.869 244.403 410.8C244.329 410.731 244.27 410.647 244.23 410.554C244.189 410.461 244.168 410.361 244.168 410.259C244.168 410.158 244.189 410.058 244.23 409.965C244.27 409.872 244.329 409.788 244.403 409.719C244.477 409.649 244.564 409.596 244.66 409.562C244.755 409.528 244.857 409.514 244.958 409.52H449.211C449.312 409.514 449.413 409.528 449.509 409.562C449.604 409.596 449.692 409.649 449.766 409.719C449.84 409.788 449.899 409.872 449.939 409.965C449.979 410.058 450 410.158 450 410.259C450 410.361 449.979 410.461 449.939 410.554C449.899 410.647 449.84 410.731 449.766 410.8C449.692 410.869 449.604 410.923 449.509 410.957C449.413 410.991 449.312 411.005 449.211 410.998V410.998Z" fill="#CDDBDD"/>
<path d="M69.6635 203.743L59.4927 189.694L62.2631 187.689L70.0486 198.441L99.8407 167.83L102.291 170.216L69.6635 203.743Z" fill="#6076B8"/>
<path d="M390.436 294.796C390.721 294.71 391.013 294.648 391.309 294.609L403.103 270.639L399.503 265.241L406.939 258.741L416.287 270.182L397.248 297.893C397.717 298.942 397.856 300.108 397.647 301.237C397.437 302.367 396.888 303.406 396.074 304.215C395.259 305.025 394.218 305.568 393.087 305.771C391.957 305.975 390.791 305.829 389.746 305.353C388.7 304.878 387.824 304.095 387.235 303.11C386.645 302.124 386.369 300.982 386.444 299.836C386.519 298.69 386.941 297.594 387.654 296.693C388.367 295.793 389.337 295.131 390.436 294.796V294.796Z" fill="#FFB8B8"/>
<path d="M410.569 262.056C410.408 262.226 410.224 262.371 410.022 262.487L397.954 269.484C397.398 269.806 396.737 269.894 396.116 269.729C395.495 269.564 394.965 269.158 394.642 268.602C394.609 268.544 394.577 268.485 394.549 268.424L388.678 256.023C388.428 255.501 388.375 254.907 388.527 254.348C388.679 253.79 389.026 253.305 389.506 252.982L396.986 247.893C397.453 247.575 398.016 247.431 398.579 247.484C399.141 247.538 399.667 247.786 400.066 248.186L410.521 258.679C410.966 259.126 411.22 259.728 411.229 260.358C411.237 260.989 411 261.598 410.567 262.056L410.569 262.056Z" fill="#CCCCCC"/>
<path d="M427.512 399.393L421.141 401.127L411.422 377.373L420.826 374.814L427.512 399.393Z" fill="#FFB8B8"/>
<path d="M416.097 400.541L428.384 397.198L430.488 404.933L410.465 410.382C409.907 408.33 410.186 406.14 411.242 404.294C412.298 402.448 414.044 401.097 416.096 400.539H416.096L416.097 400.541Z" fill="#2F2E41"/>
<path d="M373.046 404.255H366.443L363.301 378.784H373.046V404.255Z" fill="#FFB8B8"/>
<path d="M361.727 402.368H374.461V410.387H353.709C353.709 409.334 353.917 408.291 354.32 407.318C354.722 406.345 355.313 405.461 356.057 404.717C356.802 403.972 357.686 403.381 358.658 402.978C359.631 402.575 360.674 402.368 361.727 402.368H361.727Z" fill="#2F2E41"/>
<path d="M380.003 239.438C387.309 239.438 393.231 233.515 393.231 226.208C393.231 218.902 387.309 212.979 380.003 212.979C372.698 212.979 366.775 218.902 366.775 226.208C366.775 233.515 372.698 239.438 380.003 239.438Z" fill="#FFB8B8"/>
<path d="M372.642 386.094H363.619C363.002 386.094 362.408 385.859 361.958 385.436C361.508 385.014 361.235 384.436 361.196 383.82C358.507 341.073 360.08 310.41 366.145 287.322C366.172 287.221 366.204 287.121 366.243 287.024L366.728 285.816C366.907 285.365 367.217 284.979 367.618 284.707C368.02 284.435 368.494 284.291 368.979 284.292H387.533C387.883 284.292 388.229 284.367 388.546 284.514C388.864 284.66 389.146 284.873 389.374 285.138L391.894 288.079C391.943 288.136 391.989 288.195 392.033 288.257C403.397 304.106 413.582 335.093 425.377 376.743C425.551 377.348 425.482 377.997 425.185 378.552C424.887 379.107 424.384 379.524 423.784 379.714L414.09 382.818C413.533 382.993 412.932 382.963 412.396 382.732C411.859 382.502 411.424 382.086 411.168 381.562L386.004 329.364C385.828 328.999 385.54 328.701 385.181 328.513C384.822 328.325 384.412 328.258 384.012 328.321C383.612 328.384 383.243 328.575 382.96 328.864C382.677 329.153 382.494 329.526 382.439 329.928L375.043 383.999C374.962 384.578 374.675 385.11 374.234 385.495C373.793 385.88 373.227 386.093 372.642 386.094V386.094Z" fill="#2F2E41"/>
<path d="M390.877 288.295H390.801L368.261 287.582C367.682 287.566 367.127 287.342 366.699 286.951C366.271 286.56 365.998 286.028 365.93 285.452C363.075 262.323 370.908 256.126 374.41 254.534C374.703 254.402 374.956 254.197 375.146 253.938C375.336 253.679 375.456 253.376 375.494 253.057L375.797 250.633C375.848 250.205 376.014 249.798 376.276 249.456C381.766 242.343 389.262 240.065 393.241 239.341C393.872 239.228 394.523 239.37 395.05 239.736C395.577 240.103 395.937 240.663 396.05 241.295C396.057 241.335 396.063 241.375 396.069 241.415L396.523 244.896C396.569 245.228 396.701 245.542 396.907 245.807C408.356 260.777 395.601 282.88 392.928 287.158C392.71 287.506 392.407 287.792 392.048 287.991C391.69 288.19 391.287 288.294 390.877 288.295V288.295Z" fill="#CCCCCC"/>
<path d="M383.784 317.205L366.756 320.487L366.109 317.128L379.143 314.615L363.994 274.674L367.192 273.461L383.784 317.205Z" fill="#6076B8"/>
<path d="M406.69 227.698C403.74 223.542 400.201 219.837 396.186 216.699C392.847 214.091 389.13 211.863 385.032 210.798C380.934 209.732 376.405 209.913 372.665 211.901C368.925 213.889 365.058 217.84 365.034 222.076C365.027 223.437 365.373 225.278 366.713 225.042L367.101 225.096L376.799 223.137L380.929 237.474C381.219 238.481 381.609 239.607 382.565 240.036C383.465 240.441 384.504 240.06 385.419 239.679C385.569 239.617 386.856 236.726 386.856 236.726C386.888 236.636 386.944 236.556 387.018 236.495C387.091 236.433 387.18 236.392 387.274 236.376C387.369 236.361 387.466 236.37 387.556 236.405C387.645 236.439 387.724 236.496 387.784 236.571L388.549 237.527C388.695 237.71 388.896 237.841 389.123 237.899C389.349 237.958 389.589 237.94 389.805 237.851L405.62 231.247C406.349 230.943 407.163 230.547 407.374 229.785C407.574 229.052 407.128 228.315 406.69 227.698Z" fill="#2F2E41"/>
<path d="M388.774 321.171C389.467 320.685 390.044 320.053 390.466 319.32C390.888 318.587 391.144 317.77 391.216 316.927C391.289 316.085 391.175 315.236 390.884 314.442C390.593 313.648 390.131 312.927 389.532 312.331L393.718 261.768L381.253 263.483L381.016 312.607C380.079 313.68 379.569 315.061 379.582 316.485C379.595 317.91 380.131 319.281 381.087 320.337C382.044 321.393 383.355 322.062 384.771 322.215C386.187 322.369 387.611 321.998 388.772 321.171L388.774 321.171Z" fill="#FFB8B8"/>
<path d="M394.533 269.049C394.3 269.049 394.067 269.015 393.844 268.949L380.462 265.013C380.157 264.923 379.872 264.774 379.625 264.574C379.377 264.374 379.171 264.128 379.019 263.848C378.866 263.569 378.77 263.262 378.736 262.946C378.703 262.629 378.731 262.309 378.821 262.004C378.84 261.939 378.862 261.876 378.886 261.813L383.838 249.018C384.045 248.478 384.439 248.029 384.948 247.755C385.458 247.481 386.049 247.399 386.613 247.525L395.454 249.447C396.006 249.567 396.498 249.876 396.847 250.321C397.195 250.765 397.377 251.317 397.362 251.882L396.95 266.69C396.933 267.321 396.671 267.919 396.22 268.36C395.768 268.8 395.163 269.047 394.533 269.048V269.049Z" fill="#CCCCCC"/>
</g>
</g>
<defs>
<linearGradient id="paint0_linear_1901_2056" x1="107.227" y1="319.041" x2="367.806" y2="29.0435" gradientUnits="userSpaceOnUse">
<stop stop-color="#919EAB"/>
<stop offset="1" stop-color="#919EAB" stop-opacity="0"/>
</linearGradient>
<clipPath id="clip0_1901_2056">
<rect width="550" height="450" fill="white"/>
</clipPath>
<clipPath id="clip1_1901_2056">
<rect width="413" height="317" fill="white" transform="translate(37 94)"/>
</clipPath>
</defs>
</svg>
